<svg width="35" height="35" viewBox="0 0 35 35" fill="none" xmlns="http://www.w3.org/2000/svg">
<path d="M17.5 0C7.83523 0 0 7.83523 0 17.5C0 27.1648 7.83523 35 17.5 35C27.1648 35 35 27.1648 35 17.5C35 7.83523 27.1648 0 17.5 0ZM17.5 3.18182C25.4076 3.18182 31.8182 9.59239 31.8182 17.5C31.8182 25.4076 25.4076 31.8182 17.5 31.8182C9.59239 31.8182 3.18182 25.4076 3.18182 17.5C3.18182 9.59239 9.59239 3.18182 17.5 3.18182ZM24.6917 10.6097C24.2877 10.5631 23.78 10.6738 23.2127 10.8785C22.1762 11.2523 8.92796 16.8779 8.16273 17.2033C7.43807 17.5119 6.75128 17.8483 6.75049 18.3343C6.75049 18.6763 6.95332 18.8695 7.51332 19.0692C8.09559 19.2776 9.56397 19.7215 10.431 19.9609C11.2662 20.1908 12.2161 19.9904 12.749 19.6595C13.313 19.3087 19.8296 14.9486 20.2965 14.5668C20.7635 14.1849 21.1367 14.6751 20.7548 15.0577C20.373 15.4403 15.8996 19.7791 15.3094 20.3804C14.5935 21.1106 15.1024 21.8671 15.5828 22.1702C16.1309 22.5162 20.0767 25.1618 20.6709 25.5866C21.2651 26.0114 21.8667 26.2034 22.4188 26.2034C22.9708 26.2034 23.2614 25.4759 23.5358 24.6327C23.858 23.6455 25.3671 13.8028 25.5524 11.8635C25.6089 11.2756 25.4234 10.8849 25.0599 10.7107C24.95 10.658 24.8264 10.6252 24.6917 10.6097Z" fill="#1BC89F"/>
</svg>
