<svg width="35" height="35" viewBox="0 0 35 35" fill="none" xmlns="http://www.w3.org/2000/svg">
<circle cx="17.5" cy="17.5" r="17.5" fill="#1BC89F"/>
<path d="M30.1981 23.5125C29.1737 21.6964 26.5349 19.5143 25.4455 18.5647C25.1473 18.3047 25.1154 17.8549 25.3868 17.5674C27.4658 15.3667 29.1287 12.8381 29.701 11.3102C29.9536 10.6352 29.4308 9.92205 28.6943 9.92205H26.5548C25.8496 9.92205 25.4369 10.1714 25.2402 10.5684C23.5124 14.0561 22.0302 15.5655 20.9927 16.4477C20.4118 16.9419 19.5059 16.5325 19.5059 15.7806C19.5059 14.3318 19.5059 12.4591 19.5059 11.131C19.5059 10.487 18.9712 9.96585 18.3116 9.96585L14.4032 9.92205C13.9113 9.92205 13.6302 10.4707 13.9255 10.8553L14.5708 11.7678C14.8137 12.084 14.9448 12.4686 14.9448 12.8634L14.9414 16.9728C14.9414 17.6876 14.0618 18.0369 13.5396 17.536C11.7729 15.8413 10.24 12.3805 9.6882 10.7256C9.52858 10.2466 9.0731 9.92317 8.55661 9.92205L6.44907 9.91699C5.65838 9.91699 5.08033 10.6554 5.29525 11.3989C7.22094 18.0571 11.1721 24.3913 18.2136 25.078C18.9074 25.1454 19.5059 24.5951 19.5059 23.914V21.7543C19.5059 21.1349 19.999 20.6026 20.6329 20.5868C20.6552 20.5863 20.6774 20.5863 20.6996 20.5863C22.5621 20.5863 24.6479 23.2564 25.3776 24.5053C25.5874 24.8647 25.9796 25.0837 26.4038 25.0837H29.2387C30.0659 25.0837 30.5966 24.2194 30.1981 23.5125Z" fill="#102B3E"/>
</svg>
